<mxfile host="app.diagrams.net" modified="2023-10-22T14:45:31.985Z" agent="Mozilla/5.0 (Windows NT 10.0; Win64; x64) AppleWebKit/537.36 (KHTML, like Gecko) Chrome/118.0.0.0 Safari/537.36" etag="AgNmRflrSSpAp6n0NWdB" version="22.0.6" type="github">
  <diagram name="Page-1" id="9VRP2SbKg2WD3tNyzpAE">
    <mxGraphModel dx="1467" dy="740" grid="1" gridSize="10" guides="1" tooltips="1" connect="1" arrows="1" fold="1" page="1" pageScale="1" pageWidth="827" pageHeight="1169" math="0" shadow="0">
      <root>
        <mxCell id="0" />
        <mxCell id="1" parent="0" />
        <mxCell id="mKa2jSGX5tu-ZIoSOjIJ-2" value="" style="rounded=0;whiteSpace=wrap;html=1;" vertex="1" parent="1">
          <mxGeometry x="180" y="120" width="450" height="730" as="geometry" />
        </mxCell>
        <mxCell id="mKa2jSGX5tu-ZIoSOjIJ-3" value="Customer" style="shape=umlActor;html=1;verticalLabelPosition=bottom;verticalAlign=top;align=center;" vertex="1" parent="1">
          <mxGeometry x="50" y="240" width="80" height="160" as="geometry" />
        </mxCell>
        <mxCell id="mKa2jSGX5tu-ZIoSOjIJ-6" value="Receptionist" style="shape=umlActor;html=1;verticalLabelPosition=bottom;verticalAlign=top;align=center;" vertex="1" parent="1">
          <mxGeometry x="680" y="150" width="80" height="160" as="geometry" />
        </mxCell>
        <mxCell id="mKa2jSGX5tu-ZIoSOjIJ-7" value="Therapist" style="shape=umlActor;html=1;verticalLabelPosition=bottom;verticalAlign=top;align=center;" vertex="1" parent="1">
          <mxGeometry x="680" y="390" width="80" height="160" as="geometry" />
        </mxCell>
        <mxCell id="mKa2jSGX5tu-ZIoSOjIJ-8" value="Admin" style="shape=umlActor;html=1;verticalLabelPosition=bottom;verticalAlign=top;align=center;" vertex="1" parent="1">
          <mxGeometry x="680" y="610" width="80" height="160" as="geometry" />
        </mxCell>
        <mxCell id="mKa2jSGX5tu-ZIoSOjIJ-10" value="HoneyBee Physiotherapy Centre" style="text;html=1;strokeColor=none;fillColor=none;align=center;verticalAlign=middle;whiteSpace=wrap;rounded=0;fontSize=18;fontStyle=4" vertex="1" parent="1">
          <mxGeometry x="257.5" y="130" width="295" height="30" as="geometry" />
        </mxCell>
        <mxCell id="mKa2jSGX5tu-ZIoSOjIJ-11" value="Make Appointment" style="ellipse;whiteSpace=wrap;html=1;" vertex="1" parent="1">
          <mxGeometry x="400" y="200" width="120" height="50" as="geometry" />
        </mxCell>
        <mxCell id="mKa2jSGX5tu-ZIoSOjIJ-12" value="Register Arriving Customer" style="ellipse;whiteSpace=wrap;html=1;" vertex="1" parent="1">
          <mxGeometry x="400" y="260" width="120" height="50" as="geometry" />
        </mxCell>
        <mxCell id="mKa2jSGX5tu-ZIoSOjIJ-13" value="Check therapist schedule" style="ellipse;whiteSpace=wrap;html=1;" vertex="1" parent="1">
          <mxGeometry x="490" y="445" width="120" height="50" as="geometry" />
        </mxCell>
        <mxCell id="mKa2jSGX5tu-ZIoSOjIJ-14" value="Create Invoice" style="ellipse;whiteSpace=wrap;html=1;" vertex="1" parent="1">
          <mxGeometry x="390" y="320" width="120" height="50" as="geometry" />
        </mxCell>
        <mxCell id="mKa2jSGX5tu-ZIoSOjIJ-15" value="View customer record" style="ellipse;whiteSpace=wrap;html=1;" vertex="1" parent="1">
          <mxGeometry x="500" y="624" width="120" height="50" as="geometry" />
        </mxCell>
        <mxCell id="mKa2jSGX5tu-ZIoSOjIJ-16" value="Create/Update treatment record" style="ellipse;whiteSpace=wrap;html=1;" vertex="1" parent="1">
          <mxGeometry x="490" y="500" width="120" height="50" as="geometry" />
        </mxCell>
        <mxCell id="mKa2jSGX5tu-ZIoSOjIJ-18" value="Provide Details" style="ellipse;whiteSpace=wrap;html=1;" vertex="1" parent="1">
          <mxGeometry x="210" y="325" width="120" height="50" as="geometry" />
        </mxCell>
        <mxCell id="mKa2jSGX5tu-ZIoSOjIJ-19" value="Create Sales Record" style="ellipse;whiteSpace=wrap;html=1;" vertex="1" parent="1">
          <mxGeometry x="200" y="585" width="120" height="50" as="geometry" />
        </mxCell>
        <mxCell id="mKa2jSGX5tu-ZIoSOjIJ-20" value="Pay Invoice" style="ellipse;whiteSpace=wrap;html=1;" vertex="1" parent="1">
          <mxGeometry x="340" y="445" width="120" height="50" as="geometry" />
        </mxCell>
        <mxCell id="mKa2jSGX5tu-ZIoSOjIJ-21" value="Update Customer Record" style="ellipse;whiteSpace=wrap;html=1;" vertex="1" parent="1">
          <mxGeometry x="360" y="574" width="120" height="50" as="geometry" />
        </mxCell>
        <mxCell id="mKa2jSGX5tu-ZIoSOjIJ-22" value="View sales record" style="ellipse;whiteSpace=wrap;html=1;" vertex="1" parent="1">
          <mxGeometry x="450" y="690" width="120" height="50" as="geometry" />
        </mxCell>
        <mxCell id="mKa2jSGX5tu-ZIoSOjIJ-23" value="" style="endArrow=none;html=1;rounded=0;exitX=1;exitY=0.5;exitDx=0;exitDy=0;entryX=0;entryY=0.3333333333333333;entryDx=0;entryDy=0;entryPerimeter=0;" edge="1" parent="1" source="mKa2jSGX5tu-ZIoSOjIJ-22" target="mKa2jSGX5tu-ZIoSOjIJ-8">
          <mxGeometry width="50" height="50" relative="1" as="geometry">
            <mxPoint x="530" y="770" as="sourcePoint" />
            <mxPoint x="580" y="720" as="targetPoint" />
          </mxGeometry>
        </mxCell>
        <mxCell id="mKa2jSGX5tu-ZIoSOjIJ-24" value="" style="endArrow=none;html=1;rounded=0;entryX=0;entryY=0.3333333333333333;entryDx=0;entryDy=0;entryPerimeter=0;exitX=1;exitY=0.5;exitDx=0;exitDy=0;" edge="1" parent="1" source="mKa2jSGX5tu-ZIoSOjIJ-15" target="mKa2jSGX5tu-ZIoSOjIJ-8">
          <mxGeometry width="50" height="50" relative="1" as="geometry">
            <mxPoint x="610" y="660" as="sourcePoint" />
            <mxPoint x="660" y="610" as="targetPoint" />
          </mxGeometry>
        </mxCell>
        <mxCell id="mKa2jSGX5tu-ZIoSOjIJ-25" value="" style="endArrow=none;html=1;rounded=0;entryX=0;entryY=0.3333333333333333;entryDx=0;entryDy=0;entryPerimeter=0;exitX=1;exitY=0.5;exitDx=0;exitDy=0;" edge="1" parent="1" source="mKa2jSGX5tu-ZIoSOjIJ-16" target="mKa2jSGX5tu-ZIoSOjIJ-7">
          <mxGeometry width="50" height="50" relative="1" as="geometry">
            <mxPoint x="580" y="500" as="sourcePoint" />
            <mxPoint x="630" y="450" as="targetPoint" />
          </mxGeometry>
        </mxCell>
        <mxCell id="mKa2jSGX5tu-ZIoSOjIJ-26" value="" style="endArrow=none;html=1;rounded=0;entryX=0;entryY=0.3333333333333333;entryDx=0;entryDy=0;entryPerimeter=0;exitX=1;exitY=0.5;exitDx=0;exitDy=0;" edge="1" parent="1" source="mKa2jSGX5tu-ZIoSOjIJ-13" target="mKa2jSGX5tu-ZIoSOjIJ-7">
          <mxGeometry width="50" height="50" relative="1" as="geometry">
            <mxPoint x="580" y="490" as="sourcePoint" />
            <mxPoint x="630" y="440" as="targetPoint" />
          </mxGeometry>
        </mxCell>
        <mxCell id="mKa2jSGX5tu-ZIoSOjIJ-27" value="Update Therapist Schedule" style="ellipse;whiteSpace=wrap;html=1;" vertex="1" parent="1">
          <mxGeometry x="470" y="383" width="120" height="50" as="geometry" />
        </mxCell>
        <mxCell id="mKa2jSGX5tu-ZIoSOjIJ-28" value="" style="endArrow=none;html=1;rounded=0;exitX=1;exitY=0.5;exitDx=0;exitDy=0;entryX=0;entryY=0.3333333333333333;entryDx=0;entryDy=0;entryPerimeter=0;" edge="1" parent="1" source="mKa2jSGX5tu-ZIoSOjIJ-27" target="mKa2jSGX5tu-ZIoSOjIJ-6">
          <mxGeometry width="50" height="50" relative="1" as="geometry">
            <mxPoint x="600" y="350" as="sourcePoint" />
            <mxPoint x="650" y="300" as="targetPoint" />
          </mxGeometry>
        </mxCell>
        <mxCell id="mKa2jSGX5tu-ZIoSOjIJ-29" value="" style="endArrow=none;html=1;rounded=0;entryX=0;entryY=0.3333333333333333;entryDx=0;entryDy=0;entryPerimeter=0;exitX=1;exitY=0.5;exitDx=0;exitDy=0;" edge="1" parent="1" source="mKa2jSGX5tu-ZIoSOjIJ-14" target="mKa2jSGX5tu-ZIoSOjIJ-6">
          <mxGeometry width="50" height="50" relative="1" as="geometry">
            <mxPoint x="570" y="280" as="sourcePoint" />
            <mxPoint x="620" y="230" as="targetPoint" />
          </mxGeometry>
        </mxCell>
        <mxCell id="mKa2jSGX5tu-ZIoSOjIJ-30" value="" style="endArrow=none;html=1;rounded=0;exitX=1;exitY=0.5;exitDx=0;exitDy=0;entryX=0;entryY=0.3333333333333333;entryDx=0;entryDy=0;entryPerimeter=0;" edge="1" parent="1" source="mKa2jSGX5tu-ZIoSOjIJ-12" target="mKa2jSGX5tu-ZIoSOjIJ-6">
          <mxGeometry width="50" height="50" relative="1" as="geometry">
            <mxPoint x="570" y="270" as="sourcePoint" />
            <mxPoint x="620" y="220" as="targetPoint" />
          </mxGeometry>
        </mxCell>
        <mxCell id="mKa2jSGX5tu-ZIoSOjIJ-31" value="" style="endArrow=none;html=1;rounded=0;entryX=0;entryY=0.3333333333333333;entryDx=0;entryDy=0;entryPerimeter=0;exitX=1;exitY=0.5;exitDx=0;exitDy=0;" edge="1" parent="1" source="mKa2jSGX5tu-ZIoSOjIJ-11" target="mKa2jSGX5tu-ZIoSOjIJ-6">
          <mxGeometry width="50" height="50" relative="1" as="geometry">
            <mxPoint x="560" y="280" as="sourcePoint" />
            <mxPoint x="610" y="230" as="targetPoint" />
          </mxGeometry>
        </mxCell>
        <mxCell id="mKa2jSGX5tu-ZIoSOjIJ-32" value="" style="endArrow=none;html=1;rounded=0;entryX=0;entryY=0.5;entryDx=0;entryDy=0;exitX=1;exitY=0.3333333333333333;exitDx=0;exitDy=0;exitPerimeter=0;" edge="1" parent="1" source="mKa2jSGX5tu-ZIoSOjIJ-3" target="mKa2jSGX5tu-ZIoSOjIJ-11">
          <mxGeometry width="50" height="50" relative="1" as="geometry">
            <mxPoint x="110" y="330" as="sourcePoint" />
            <mxPoint x="160" y="280" as="targetPoint" />
          </mxGeometry>
        </mxCell>
        <mxCell id="mKa2jSGX5tu-ZIoSOjIJ-33" value="" style="endArrow=none;html=1;rounded=0;entryX=0;entryY=0.5;entryDx=0;entryDy=0;exitX=1;exitY=0.3333333333333333;exitDx=0;exitDy=0;exitPerimeter=0;" edge="1" parent="1" source="mKa2jSGX5tu-ZIoSOjIJ-3" target="mKa2jSGX5tu-ZIoSOjIJ-18">
          <mxGeometry width="50" height="50" relative="1" as="geometry">
            <mxPoint x="130" y="300" as="sourcePoint" />
            <mxPoint x="180" y="320" as="targetPoint" />
          </mxGeometry>
        </mxCell>
        <mxCell id="mKa2jSGX5tu-ZIoSOjIJ-34" value="" style="endArrow=none;html=1;rounded=0;entryX=0;entryY=0.5;entryDx=0;entryDy=0;exitX=1;exitY=0.3333333333333333;exitDx=0;exitDy=0;exitPerimeter=0;" edge="1" parent="1" source="mKa2jSGX5tu-ZIoSOjIJ-3" target="mKa2jSGX5tu-ZIoSOjIJ-19">
          <mxGeometry width="50" height="50" relative="1" as="geometry">
            <mxPoint x="80" y="440" as="sourcePoint" />
            <mxPoint x="130" y="390" as="targetPoint" />
          </mxGeometry>
        </mxCell>
        <mxCell id="mKa2jSGX5tu-ZIoSOjIJ-36" value="" style="endArrow=open;dashed=1;html=1;rounded=0;entryX=0;entryY=1;entryDx=0;entryDy=0;exitX=1;exitY=0;exitDx=0;exitDy=0;" edge="1" parent="1" source="mKa2jSGX5tu-ZIoSOjIJ-18" target="mKa2jSGX5tu-ZIoSOjIJ-11">
          <mxGeometry width="50" height="50" relative="1" as="geometry">
            <mxPoint x="320" y="330" as="sourcePoint" />
            <mxPoint x="370" y="280" as="targetPoint" />
          </mxGeometry>
        </mxCell>
        <mxCell id="mKa2jSGX5tu-ZIoSOjIJ-37" value="include" style="text;html=1;strokeColor=none;fillColor=none;align=center;verticalAlign=middle;whiteSpace=wrap;rounded=0;rotation=-40;" vertex="1" parent="1">
          <mxGeometry x="330" y="270" width="60" height="30" as="geometry" />
        </mxCell>
        <mxCell id="mKa2jSGX5tu-ZIoSOjIJ-38" value="" style="endArrow=open;dashed=1;html=1;rounded=0;entryX=0;entryY=1;entryDx=0;entryDy=0;exitX=1;exitY=0.5;exitDx=0;exitDy=0;" edge="1" parent="1" source="mKa2jSGX5tu-ZIoSOjIJ-18" target="mKa2jSGX5tu-ZIoSOjIJ-12">
          <mxGeometry width="50" height="50" relative="1" as="geometry">
            <mxPoint x="323" y="342" as="sourcePoint" />
            <mxPoint x="427" y="253" as="targetPoint" />
          </mxGeometry>
        </mxCell>
        <mxCell id="mKa2jSGX5tu-ZIoSOjIJ-39" value="include" style="text;html=1;strokeColor=none;fillColor=none;align=center;verticalAlign=middle;whiteSpace=wrap;rounded=0;rotation=-30;" vertex="1" parent="1">
          <mxGeometry x="340" y="307" width="60" height="30" as="geometry" />
        </mxCell>
        <mxCell id="mKa2jSGX5tu-ZIoSOjIJ-41" value="" style="endArrow=open;dashed=1;html=1;rounded=0;entryX=0.5;entryY=0;entryDx=0;entryDy=0;exitX=1;exitY=1;exitDx=0;exitDy=0;" edge="1" parent="1" source="mKa2jSGX5tu-ZIoSOjIJ-14" target="mKa2jSGX5tu-ZIoSOjIJ-20">
          <mxGeometry width="50" height="50" relative="1" as="geometry">
            <mxPoint x="340" y="360" as="sourcePoint" />
            <mxPoint x="427" y="313" as="targetPoint" />
          </mxGeometry>
        </mxCell>
        <mxCell id="mKa2jSGX5tu-ZIoSOjIJ-42" value="include" style="text;html=1;strokeColor=none;fillColor=none;align=center;verticalAlign=middle;whiteSpace=wrap;rounded=0;rotation=-50;" vertex="1" parent="1">
          <mxGeometry x="357" y="364" width="60" height="30" as="geometry" />
        </mxCell>
        <mxCell id="mKa2jSGX5tu-ZIoSOjIJ-43" value="" style="endArrow=none;startArrow=open;dashed=1;html=1;rounded=0;entryX=0;entryY=1;entryDx=0;entryDy=0;exitX=0.5;exitY=0;exitDx=0;exitDy=0;" edge="1" parent="1" source="mKa2jSGX5tu-ZIoSOjIJ-19" target="mKa2jSGX5tu-ZIoSOjIJ-20">
          <mxGeometry width="50" height="50" relative="1" as="geometry">
            <mxPoint x="427" y="373" as="sourcePoint" />
            <mxPoint x="340" y="516" as="targetPoint" />
          </mxGeometry>
        </mxCell>
        <mxCell id="mKa2jSGX5tu-ZIoSOjIJ-45" value="" style="endArrow=open;dashed=1;html=1;rounded=0;entryX=1;entryY=1;entryDx=0;entryDy=0;exitX=0;exitY=0.5;exitDx=0;exitDy=0;" edge="1" parent="1" source="mKa2jSGX5tu-ZIoSOjIJ-22" target="mKa2jSGX5tu-ZIoSOjIJ-19">
          <mxGeometry width="50" height="50" relative="1" as="geometry">
            <mxPoint x="427" y="373" as="sourcePoint" />
            <mxPoint x="340" y="425" as="targetPoint" />
          </mxGeometry>
        </mxCell>
        <mxCell id="mKa2jSGX5tu-ZIoSOjIJ-46" value="include" style="text;html=1;strokeColor=none;fillColor=none;align=center;verticalAlign=middle;whiteSpace=wrap;rounded=0;rotation=30;" vertex="1" parent="1">
          <mxGeometry x="401" y="680" width="60" height="30" as="geometry" />
        </mxCell>
        <mxCell id="mKa2jSGX5tu-ZIoSOjIJ-48" value="" style="endArrow=open;dashed=1;html=1;rounded=0;entryX=0.302;entryY=0.03;entryDx=0;entryDy=0;exitX=0;exitY=1;exitDx=0;exitDy=0;entryPerimeter=0;" edge="1" parent="1" source="mKa2jSGX5tu-ZIoSOjIJ-14" target="mKa2jSGX5tu-ZIoSOjIJ-19">
          <mxGeometry width="50" height="50" relative="1" as="geometry">
            <mxPoint x="353" y="436" as="sourcePoint" />
            <mxPoint x="425" y="455" as="targetPoint" />
          </mxGeometry>
        </mxCell>
        <mxCell id="mKa2jSGX5tu-ZIoSOjIJ-49" value="" style="endArrow=open;dashed=1;html=1;rounded=0;entryX=0;entryY=0;entryDx=0;entryDy=0;exitX=0.5;exitY=1;exitDx=0;exitDy=0;" edge="1" parent="1" source="mKa2jSGX5tu-ZIoSOjIJ-20" target="mKa2jSGX5tu-ZIoSOjIJ-21">
          <mxGeometry width="50" height="50" relative="1" as="geometry">
            <mxPoint x="353" y="436" as="sourcePoint" />
            <mxPoint x="370" y="455" as="targetPoint" />
          </mxGeometry>
        </mxCell>
        <mxCell id="mKa2jSGX5tu-ZIoSOjIJ-50" value="" style="endArrow=open;dashed=1;html=1;rounded=0;entryX=0.5;entryY=1;entryDx=0;entryDy=0;exitX=0;exitY=0.5;exitDx=0;exitDy=0;" edge="1" parent="1" source="mKa2jSGX5tu-ZIoSOjIJ-15" target="mKa2jSGX5tu-ZIoSOjIJ-21">
          <mxGeometry width="50" height="50" relative="1" as="geometry">
            <mxPoint x="460" y="725" as="sourcePoint" />
            <mxPoint x="313" y="638" as="targetPoint" />
          </mxGeometry>
        </mxCell>
        <mxCell id="mKa2jSGX5tu-ZIoSOjIJ-51" value="" style="endArrow=open;dashed=1;html=1;rounded=0;entryX=0.5;entryY=0;entryDx=0;entryDy=0;exitX=0;exitY=0.5;exitDx=0;exitDy=0;" edge="1" parent="1" source="mKa2jSGX5tu-ZIoSOjIJ-16" target="mKa2jSGX5tu-ZIoSOjIJ-21">
          <mxGeometry width="50" height="50" relative="1" as="geometry">
            <mxPoint x="370" y="505" as="sourcePoint" />
            <mxPoint x="397" y="577" as="targetPoint" />
          </mxGeometry>
        </mxCell>
        <mxCell id="mKa2jSGX5tu-ZIoSOjIJ-52" value="include" style="text;html=1;strokeColor=none;fillColor=none;align=center;verticalAlign=middle;whiteSpace=wrap;rounded=0;rotation=-45;" vertex="1" parent="1">
          <mxGeometry x="427" y="371" width="60" height="30" as="geometry" />
        </mxCell>
        <mxCell id="mKa2jSGX5tu-ZIoSOjIJ-53" value="include" style="text;html=1;strokeColor=none;fillColor=none;align=center;verticalAlign=middle;whiteSpace=wrap;rounded=0;rotation=15;" vertex="1" parent="1">
          <mxGeometry x="444" y="619" width="60" height="30" as="geometry" />
        </mxCell>
        <mxCell id="mKa2jSGX5tu-ZIoSOjIJ-54" value="include" style="text;html=1;strokeColor=none;fillColor=none;align=center;verticalAlign=middle;whiteSpace=wrap;rounded=0;rotation=-35;" vertex="1" parent="1">
          <mxGeometry x="439" y="517" width="60" height="30" as="geometry" />
        </mxCell>
        <mxCell id="mKa2jSGX5tu-ZIoSOjIJ-55" value="include" style="text;html=1;strokeColor=none;fillColor=none;align=center;verticalAlign=middle;whiteSpace=wrap;rounded=0;rotation=-75;" vertex="1" parent="1">
          <mxGeometry x="357" y="502" width="60" height="30" as="geometry" />
        </mxCell>
        <mxCell id="mKa2jSGX5tu-ZIoSOjIJ-56" value="include" style="text;html=1;strokeColor=none;fillColor=none;align=center;verticalAlign=middle;whiteSpace=wrap;rounded=0;rotation=-45;" vertex="1" parent="1">
          <mxGeometry x="304" y="487" width="60" height="30" as="geometry" />
        </mxCell>
      </root>
    </mxGraphModel>
  </diagram>
</mxfile>
